# xmcd
#
# Track frame offsets:
#	150
#	20722
#	34497
#	48602
#
# Disc length: 797 seconds
#
# Revision: 1
# Processed by: cddbd v1.5.2PL0 Copyright (c) Steve Scherf et al.
# Submitted via: audiograbber 1.83.01
#
DISCID=35031b04
DTITLE=Lucky Star - My Life, My Love, My Happiness
DYEAR=2000
DGENRE=Country
TTITLE0=My Life, My Love, My Happiness
TTITLE1=Pride and Joy
TTITLE2=In Every Broken Heart
TTITLE3=Country Love
EXTD=
EXTT0=
EXTT1=
EXTT2=
EXTT3=
PLAYORDER=
